<?xml version="1.0" standalone="no"?>
<!DOCTYPE svg PUBLIC "-//W3C//DTD SVG 20010904//EN"
 "http://www.w3.org/TR/2001/REC-SVG-20010904/DTD/svg10.dtd">
<svg version="1.0" xmlns="http://www.w3.org/2000/svg"
 width="2362.000000pt" height="2362.000000pt" viewBox="0 0 2362.000000 2362.000000"
 preserveAspectRatio="xMidYMid meet">
<metadata>
Created by potrace 1.11, written by Peter Selinger 2001-2013
</metadata>
<g transform="translate(0.000000,2362.000000) scale(0.100000,-0.100000)"
fill="#000000" stroke="none">
<path d="M0 11810 l0 -11810 11810 0 11810 0 0 11810 0 11810 -11810 0 -11810
0 0 -11810z m13540 6670 c1386 -77 2639 -446 3820 -1126 124 -72 334 -193 467
-269 134 -77 242 -145 240 -152 -1 -6 -207 -315 -457 -687 -293 -434 -460
-674 -468 -671 -7 3 -196 111 -420 242 -581 338 -895 493 -1307 646 -591 218
-1246 354 -1919 398 -231 15 -845 6 -1056 -15 -544 -55 -1007 -151 -1489 -308
-1295 -422 -2375 -1219 -3054 -2253 -404 -617 -645 -1290 -723 -2020 -20 -191
-23 -599 -5 -785 96 -1007 500 -1904 1219 -2704 574 -637 1394 -1179 2312
-1526 1779 -673 3818 -650 5445 60 144 63 265 122 484 238 l163 87 -6 320
c-10 541 -39 3135 -35 3139 2 2 313 6 692 10 l687 7 0 -213 c0 -208 47 -4100
52 -4287 l2 -95 -339 -184 c-407 -220 -714 -378 -890 -457 -1971 -882 -4384
-973 -6565 -246 -1858 619 -3311 1753 -4178 3260 -435 756 -695 1577 -779
2453 -23 243 -23 770 1 1013 88 927 364 1762 849 2570 576 962 1460 1820 2502
2431 182 107 599 320 790 405 933 412 1966 659 3010 718 210 12 745 12 955 1z"/>
</g>
</svg>
