<svg xmlns="http://www.w3.org/2000/svg" viewBox="0 0 386.4 215.6"><title>Asset 2</title><path fill="#5bcc2c" d="M101.8 16.8c-55.1 0-100 44.6-100 99.4s44.9 99.4 100 99.4 99.9-44.6 99.9-99.4-44.8-99.4-99.9-99.4zm94.6 99.4c0 51.9-42.4 94.1-94.6 94.1S7.1 168.1 7.1 116.2 49.6 22 101.8 22s94.6 42.3 94.6 94.2z"/><path fill="#e43128" d="M182.5 52.1A187.5 187.5 0 0 0 156.8 25C133.5 6 110.5-1.3 88.5 3.4 49.6 11.8 28 54.3 27.1 56c-43.9 84.2-19.6 122.2-1.2 137.4 14.3 11.7 33.9 17.4 55.3 17.4 30.9 0 65.5-11.8 93.4-34 22.1-17.7 33.3-38.1 33.5-60.8 0-14-4.3-36.4-25.6-63.9zm-11 120.8C126 209.2 62.1 216.7 29.1 189.5c-17.2-14.2-39.9-50.1 2.5-131.2.2-.4 21.4-42.1 58-50a60.4 60.4 0 0 1 12-1.3c16.8 0 34.3 7.4 52 21.9.6.5 49.7 41.2 49.5 87.1-.2 21.1-10.8 40.2-31.6 56.9z"/><path fill="#fff" d="M139.2 129.2a13.3 13.3 0 0 1-4.1-2.9 12.4 12.4 0 0 1-2.6-4.3 13.2 13.2 0 0 1-1-5.3 15.4 15.4 0 0 1 .9-5.2 16.1 16.1 0 0 1 2.4-4.5 14 14 0 0 1 3.8-3.1 11.4 11.4 0 0 1 4.9-1.1 11.5 11.5 0 0 1 7 2.5 14.5 14.5 0 0 1 4.8 6.4v10.9a9.2 9.2 0 0 1-1.8 3 16 16 0 0 1-2.7 2.5 13.7 13.7 0 0 1-3.2 1.6 14 14 0 0 1-3.4.5 11.8 11.8 0 0 1-5-1m11 8.7a16.3 16.3 0 0 0 6.8-6.5l.2 3.1a6 6 0 0 0 2.3 3.9c1.1 1 2.8 1.4 5 1.5a31.5 31.5 0 0 0 5.5-.6v-9.9a3.8 3.8 0 0 1-2.4-.9 3.7 3.7 0 0 1-.7-2.6V75.7h-11.7v26a16.8 16.8 0 0 0-6.3-6.4 17.4 17.4 0 0 0-9-2.5 18.7 18.7 0 0 0-8.2 1.9 19.5 19.5 0 0 0-6.4 5 25.3 25.3 0 0 0-4.3 7.5 28.3 28.3 0 0 0-1.5 9.3 25.2 25.2 0 0 0 6.1 16.8 21 21 0 0 0 6.8 5 19.8 19.8 0 0 0 8.7 1.9 19.5 19.5 0 0 0 9.1-2.3m-70-25.3a11.6 11.6 0 0 1 1.2-4.6 10.4 10.4 0 0 1 2.6-3.6 13.1 13.1 0 0 1 3.6-2.3 12.3 12.3 0 0 1 4.4-.8 11.2 11.2 0 0 1 8.1 3.1 12 12 0 0 1 3.8 8.2zm25.1 24.2a20.6 20.6 0 0 0 8-8.6l-10-2.8a9.1 9.1 0 0 1-4.2 4.5 13 13 0 0 1-6.6 1.7 11.1 11.1 0 0 1-4.4-.8 10.7 10.7 0 0 1-3.7-2.2 12.2 12.2 0 0 1-2.7-3.6 14.1 14.1 0 0 1-1.3-4.8h35.3a7.9 7.9 0 0 0 .2-1.7v-2.2a24.2 24.2 0 0 0-1.6-8.9 22.6 22.6 0 0 0-4.7-7.5 21.2 21.2 0 0 0-7.5-5.1 24.1 24.1 0 0 0-10-2 24.8 24.8 0 0 0-10 2 20.6 20.6 0 0 0-7.6 5.2 21.9 21.9 0 0 0-4.8 7.5 25.9 25.9 0 0 0-1.7 9.2 24.4 24.4 0 0 0 1.7 9 22.9 22.9 0 0 0 4.8 7.5 25.4 25.4 0 0 0 7.6 5.1 26.6 26.6 0 0 0 10 1.9 25.4 25.4 0 0 0 13.2-3.4m-41-9.1l-2.7 1.1a11.3 11.3 0 0 1-3.6.6 5.8 5.8 0 0 1-3.2-1 4.5 4.5 0 0 1-1.3-3.5v-22.3h9.7v-9h-9.7V78.8H41.9v14.8h-6v9h6v26.2a13.1 13.1 0 0 0 .9 5.2 10.3 10.3 0 0 0 2.6 3.5 10.2 10.2 0 0 0 3.7 2 17.6 17.6 0 0 0 4.6.6 24.6 24.6 0 0 0 7.2-1.1 52.9 52.9 0 0 0 5.8-2.1zM238.7 91.9l-.5.2-.7.3-.8.2h-.9a2.6 2.6 0 0 1-1.9-.6 2.2 2.2 0 0 1-.8-1.8v-8h-1.6v-1.5h1.6v-4h2v4h2.7v1.5h-2.7v7.4a1.3 1.3 0 0 0 .4.9 1.6 1.6 0 0 0 .9.3 2 2 0 0 0 1.1-.2l.7-.3zm12.5.6h-2v-6.6a5.3 5.3 0 0 0-.6-2.8 2.2 2.2 0 0 0-1.9-.9 2.7 2.7 0 0 0-1.2.3l-1 .6-1 1-.6 1.3v7.1h-2V76h2v7.2a5.2 5.2 0 0 1 1.9-2 5 5 0 0 1 2.7-.7 4 4 0 0 1 1.7.3 4.3 4.3 0 0 1 1.2 1.1 3.8 3.8 0 0 1 .6 1.6 11.1 11.1 0 0 1 .2 1.9zm8.4.2a5.3 5.3 0 0 1-2.5-.5 5.9 5.9 0 0 1-1.9-1.3 6.7 6.7 0 0 1-1.2-2 5.9 5.9 0 0 1-.4-2.3 6.4 6.4 0 0 1 .4-2.4 5 5 0 0 1 1.3-1.9 5.5 5.5 0 0 1 1.9-1.4 6.1 6.1 0 0 1 2.4-.4 5.3 5.3 0 0 1 2.5.5 4.6 4.6 0 0 1 1.8 1.3 6.2 6.2 0 0 1 1.2 1.9 5.9 5.9 0 0 1 .4 2.3v.8h-9.8a4.7 4.7 0 0 0 .4 1.6 3.4 3.4 0 0 0 .9 1.2 2.5 2.5 0 0 0 1.2.8 3.7 3.7 0 0 0 1.5.3h1l1-.4.8-.6a3.5 3.5 0 0 0 .5-.8l1.8.4a3.6 3.6 0 0 1-.8 1.2l-1.2 1-1.5.6zm4.1-6.9a4.3 4.3 0 0 0-.5-1.6 4.7 4.7 0 0 0-.9-1.2 3.6 3.6 0 0 0-1.2-.8 5.7 5.7 0 0 0-3 0l-1.2.8a4.7 4.7 0 0 0-.9 1.2 7.5 7.5 0 0 0-.4 1.6zM237.8 116.4a6 6 0 0 1-2.4-.5 6 6 0 0 1-3.2-3.3 5.9 5.9 0 0 1-.4-2.3 6.1 6.1 0 0 1 .4-2.4 6.3 6.3 0 0 1 1.3-2 5.3 5.3 0 0 1 1.9-1.3 6 6 0 0 1 2.4-.5 7 7 0 0 1 2.5.5 6.2 6.2 0 0 1 1.8 1.4 6.2 6.2 0 0 1 1.2 1.9 5.9 5.9 0 0 1 .4 2.3v.7h-9.8a4.5 4.5 0 0 0 1.3 2.9 3.6 3.6 0 0 0 1.2.8 4 4 0 0 0 1.5.3h1l1-.4a2.7 2.7 0 0 0 .8-.7 2.2 2.2 0 0 0 .5-.8l1.8.5a8.3 8.3 0 0 1-.8 1.2 4.7 4.7 0 0 1-1.2.9l-1.5.7zm4.1-6.9a4.3 4.3 0 0 0-.5-1.6 3.6 3.6 0 0 0-.8-1.2 5.7 5.7 0 0 0-1.3-.8 3.7 3.7 0 0 0-1.5-.3 4 4 0 0 0-1.5.3l-1.2.8a5.4 5.4 0 0 0-.9 1.2 7.5 7.5 0 0 0-.4 1.6zm14.8 6.7h-2v-6.6a5.2 5.2 0 0 0-.5-2.8 2 2 0 0 0-1.8-.9 2.7 2.7 0 0 0-1.2.3l-1.2.6-.9 1a3.4 3.4 0 0 0-.6 1.2v7.2h-2v-11.9h1.8v2.6a4.8 4.8 0 0 1 2-2 6 6 0 0 1 2.9-.8 3.9 3.9 0 0 1 1.7.4 2.9 2.9 0 0 1 1.1 1.1 3.4 3.4 0 0 1 .6 1.5 12.7 12.7 0 0 1 .1 2zm9.7-.6l-.5.2-.7.2-.8.2h-.9a3.3 3.3 0 0 1-1.9-.6 2.2 2.2 0 0 1-.8-1.8v-8h-1.6v-1.6h1.6v-3.9h2v3.9h2.7v1.6h-2.7v7.3c.1.5.2.8.5 1a1.2 1.2 0 0 0 .9.3l1-.2.7-.3zm7.6.8a7 7 0 0 1-2.5-.5 6.4 6.4 0 0 1-1.9-1.3 6.7 6.7 0 0 1-1.2-2 5.9 5.9 0 0 1-.5-2.3 6 6 0 0 1 .5-2.4 8.2 8.2 0 0 1 1.2-2 8 8 0 0 1 1.9-1.3 7 7 0 0 1 2.5-.5 6 6 0 0 1 2.4.5 5.5 5.5 0 0 1 1.9 1.4 6.2 6.2 0 0 1 1.2 1.9 5.9 5.9 0 0 1 .4 2.3v.7H270a6.2 6.2 0 0 0 .4 1.6l.9 1.3a5.7 5.7 0 0 0 1.3.8 3.2 3.2 0 0 0 1.4.3h1.1l1-.4.8-.7a2.2 2.2 0 0 0 .5-.8l1.7.5a4.2 4.2 0 0 1-.8 1.2 2.7 2.7 0 0 1-1.2.9l-1.4.7zm4-6.9a4.2 4.2 0 0 0-.4-1.6 2.7 2.7 0 0 0-.9-1.2l-1.2-.8a3.9 3.9 0 0 0-3 0 3.6 3.6 0 0 0-1.2.8 3.4 3.4 0 0 0-.9 1.2 4.2 4.2 0 0 0-.4 1.6zm10.9-3.4a4.5 4.5 0 0 0-2.6.8 3.4 3.4 0 0 0-1.7 2v7.3h-2v-11.9h1.9v2.8a5.3 5.3 0 0 1 1.6-2 3.2 3.2 0 0 1 2.1-.9h.7zm8.6 9.5l-.4.2-.7.2-.8.2h-.9a2.9 2.9 0 0 1-1.9-.6 2.2 2.2 0 0 1-.8-1.8v-8h-1.6v-1.6h1.6v-3.9h2v3.9h2.6v1.6H294v7.3a1.3 1.3 0 0 0 .4 1 1.6 1.6 0 0 0 .9.3l1.1-.2.7-.3zm5.5.8a4.1 4.1 0 0 1-1.6-.3 3.5 3.5 0 0 1-1.3-.8 2.8 2.8 0 0 1-.8-1.1 3.5 3.5 0 0 1-.3-1.4 4.1 4.1 0 0 1 .3-1.6 5.2 5.2 0 0 1 1-1.1 4.8 4.8 0 0 1 1.6-.8 6.5 6.5 0 0 1 2-.2h1.8l1.5.4v-.9a3 3 0 0 0-.8-2.3 3.2 3.2 0 0 0-2.3-.8 5.9 5.9 0 0 0-3.7 1.4l-.7-1.3a12.7 12.7 0 0 1 2.3-1.2 8.5 8.5 0 0 1 2.3-.4 5.1 5.1 0 0 1 3.6 1.3 4.5 4.5 0 0 1 1.3 3.5v4.8c0 .5.2.7.7.7v1.8h-.8a1.7 1.7 0 0 1-1-.3 1.1 1.1 0 0 1-.5-.9v-.9l-.9 1-1.1.7-1.2.4zm.5-1.5a4.1 4.1 0 0 0 1.9-.4 3.9 3.9 0 0 0 1.4-1 1.2 1.2 0 0 0 .4-.9v-1.8l-1.4-.4h-1.5a4.4 4.4 0 0 0-2.5.6 2 2 0 0 0-.9 1.7 2.8 2.8 0 0 0 .1.9c.2.2.3.5.6.7l.8.5zm9.5-12.8v-2.5h2v2.5zm0 14.1v-11.9h2v11.9zm16 0h-2v-6.6a5.1 5.1 0 0 0-.6-2.8 2 2 0 0 0-1.8-.9 2.7 2.7 0 0 0-1.2.3 2.4 2.4 0 0 0-1.1.6 4.7 4.7 0 0 0-1 1 3.4 3.4 0 0 0-.6 1.2v7.2h-2v-11.9h1.8v2.6a5.5 5.5 0 0 1 2-2 6 6 0 0 1 2.9-.8 3.9 3.9 0 0 1 1.7.4 2.3 2.3 0 0 1 1.1 1.1 3.4 3.4 0 0 1 .6 1.5 12.3 12.3 0 0 1 .2 2zm21.4 0h-2v-6.6a5.1 5.1 0 0 0-.6-2.8 2 2 0 0 0-1.8-.9 3.1 3.1 0 0 0-2.2.9 5.3 5.3 0 0 0-1.4 2.3v7.1h-2v-6.6a5.1 5.1 0 0 0-.6-2.8 1.8 1.8 0 0 0-1.7-.9 3.3 3.3 0 0 0-2.2.9 4.9 4.9 0 0 0-1.4 2.2v7.2h-2v-11.9h1.8v2.6a4.6 4.6 0 0 1 1.9-2 5 5 0 0 1 2.6-.8 3.6 3.6 0 0 1 2.4.8 4.3 4.3 0 0 1 1.1 2.1 4.9 4.9 0 0 1 4.5-2.9 4.3 4.3 0 0 1 1.7.4 3.8 3.8 0 0 1 1.1 1.1 3.4 3.4 0 0 1 .6 1.5 12.3 12.3 0 0 1 .2 2zm8.4.2a7 7 0 0 1-2.5-.5 6.4 6.4 0 0 1-1.9-1.3 6.7 6.7 0 0 1-1.2-2 5.9 5.9 0 0 1-.5-2.3 6 6 0 0 1 .5-2.4 8.2 8.2 0 0 1 1.2-2 8 8 0 0 1 1.9-1.3 7 7 0 0 1 2.5-.5 6 6 0 0 1 2.4.5 5.5 5.5 0 0 1 1.9 1.4 6.2 6.2 0 0 1 1.2 1.9 5.9 5.9 0 0 1 .4 2.3v.7h-9.9a3.8 3.8 0 0 0 .5 1.6 3.3 3.3 0 0 0 2.1 2.1 3.2 3.2 0 0 0 1.4.3h1.1l1-.4.8-.7a2.2 2.2 0 0 0 .5-.8l1.7.5a4.2 4.2 0 0 1-.8 1.2 2.7 2.7 0 0 1-1.2.9 6.1 6.1 0 0 1-1.4.7zm4-6.9a4.2 4.2 0 0 0-.4-1.6 2.7 2.7 0 0 0-.9-1.2l-1.2-.8a3.9 3.9 0 0 0-3 0 3.6 3.6 0 0 0-1.2.8 3.4 3.4 0 0 0-.9 1.2 4.2 4.2 0 0 0-.4 1.6zm14.5 6.7h-2v-6.6a5.1 5.1 0 0 0-.6-2.8 2 2 0 0 0-1.8-.9l-1.2.3a3.4 3.4 0 0 0-1.2.6l-.9 1a3.4 3.4 0 0 0-.6 1.2v7.2h-2v-11.9h1.8v2.6a4.8 4.8 0 0 1 2-2 6 6 0 0 1 2.9-.8 3.9 3.9 0 0 1 1.7.4 2.9 2.9 0 0 1 1.1 1.1 3.4 3.4 0 0 1 .6 1.5 12.3 12.3 0 0 1 .2 2zm9.1-.6l-.4.2-.7.2-.8.2h-.9a2.9 2.9 0 0 1-1.9-.6 1.9 1.9 0 0 1-.8-1.8v-8h-1.6v-1.6h1.6v-3.9h2v3.9h2.6v1.6h-2.6v7.3a1.1 1.1 0 0 0 .4 1 1.6 1.6 0 0 0 .9.3l1.1-.2.7-.3zM237.4 140.1a5.9 5.9 0 0 1-2.3-.5 7 7 0 0 1-1.7-1.3 8.2 8.2 0 0 1-1.2-2 5.9 5.9 0 0 1-.4-2.3 6.4 6.4 0 0 1 .4-2.4 5.6 5.6 0 0 1 1.1-2 5.5 5.5 0 0 1 1.7-1.3 5 5 0 0 1 2.1-.5 4.7 4.7 0 0 1 2.6.8 7.7 7.7 0 0 1 1.8 1.8v-7.1h2v14.1c0 .5.2.7.6.7v1.8h-.8a2.1 2.1 0 0 1-1.1-.4.9.9 0 0 1-.4-.8v-1.2a3.9 3.9 0 0 1-1.8 1.8 4.5 4.5 0 0 1-2.6.8zm.5-1.7l1.1-.2 1.1-.6a3.8 3.8 0 0 0 .9-.9 3.1 3.1 0 0 0 .5-1v-3.4l-.6-1.1a3.9 3.9 0 0 0-1-.8 2.7 2.7 0 0 0-1-.6 2.5 2.5 0 0 0-1.2-.2 4.1 4.1 0 0 0-1.6.3 4 4 0 0 0-1.2 1 3.6 3.6 0 0 0-.8 1.5 4.1 4.1 0 0 0-.3 1.6 3.5 3.5 0 0 0 .4 1.7 6.4 6.4 0 0 0 .8 1.4 3.8 3.8 0 0 0 1.3.9 2.9 2.9 0 0 0 1.6.4zm14.3 1.7a6 6 0 0 1-2.4-.5 6 6 0 0 1-3.2-3.3 5.9 5.9 0 0 1-.4-2.3 6.1 6.1 0 0 1 .4-2.4 6.3 6.3 0 0 1 1.3-2 5.3 5.3 0 0 1 1.9-1.3 6 6 0 0 1 2.4-.5 7 7 0 0 1 2.5.5 6.2 6.2 0 0 1 1.8 1.4 4.7 4.7 0 0 1 1.2 1.9 5.9 5.9 0 0 1 .4 2.3v.7h-9.8a4.5 4.5 0 0 0 1.3 2.9l1.2.8 1.5.3 1-.2a2.9 2.9 0 0 0 1-.3 2.7 2.7 0 0 0 .8-.7 2.4 2.4 0 0 0 .6-.8l1.7.5-.8 1.2-1.2.9-1.5.7zm4.1-6.9a4.3 4.3 0 0 0-.5-1.6 3.6 3.6 0 0 0-.8-1.2 5.7 5.7 0 0 0-1.3-.8 3.3 3.3 0 0 0-1.5-.3l-1.5.3-1.2.8a3.8 3.8 0 0 0-.9 1.2 7.5 7.5 0 0 0-.4 1.6zm10.5 6.9a5.6 5.6 0 0 1-2.6-.7 6.6 6.6 0 0 1-1.8-1.9v7.2h-2V128h1.8v2.3a5.2 5.2 0 0 1 1.8-1.8 5.5 5.5 0 0 1 2.5-.7 5.1 5.1 0 0 1 2.2.5 6.2 6.2 0 0 1 1.8 1.4 6.2 6.2 0 0 1 1.2 1.9 6.7 6.7 0 0 1 .4 2.4 5.9 5.9 0 0 1-.4 2.3 4.9 4.9 0 0 1-1.1 2 5.1 5.1 0 0 1-1.6 1.3 5.4 5.4 0 0 1-2.2.5zm-.6-1.7a4.2 4.2 0 0 0 1.6-.4 4 4 0 0 0 1.2-1 6.4 6.4 0 0 0 .8-1.4 4.5 4.5 0 0 0 .3-1.6 3.3 3.3 0 0 0-.4-1.7 4.7 4.7 0 0 0-.8-1.4 3.5 3.5 0 0 0-2.9-1.3 2.2 2.2 0 0 0-1.1.2l-1.1.5-.9.9a3.1 3.1 0 0 0-.5 1v3.4l.7 1.1.8.9 1.1.6zm12 1.7a4.5 4.5 0 0 1-1.6-.3 3.5 3.5 0 0 1-1.3-.8 4.4 4.4 0 0 1-.8-1.1 3.5 3.5 0 0 1-.3-1.4 4.1 4.1 0 0 1 .3-1.6 3.8 3.8 0 0 1 1.1-1.1 3.6 3.6 0 0 1 1.5-.8 6.9 6.9 0 0 1 2-.3l1.8.2 1.6.4v-.9a3 3 0 0 0-.9-2.3 3.2 3.2 0 0 0-2.3-.8 5.9 5.9 0 0 0-3.7 1.4l-.7-1.3a12.7 12.7 0 0 1 2.3-1.2 9.3 9.3 0 0 1 2.4-.4 4.5 4.5 0 0 1 3.5 1.3 4.5 4.5 0 0 1 1.4 3.5v4.8c0 .5.2.7.6.7v1.8h-.8a1.7 1.7 0 0 1-1-.3 1.1 1.1 0 0 1-.5-.9v-.9a4.3 4.3 0 0 1-.9 1 3.9 3.9 0 0 1-1.1.6l-1.2.5zm.5-1.5a4.1 4.1 0 0 0 1.9-.4 3.9 3.9 0 0 0 1.4-1 1.6 1.6 0 0 0 .5-.9v-1.8l-1.5-.4h-1.5a4.4 4.4 0 0 0-2.5.6 2 2 0 0 0-.9 1.7 2.8 2.8 0 0 0 .1.9c.2.2.3.5.6.7l.8.5zm15.8-8.8a5 5 0 0 0-2.7.8 3.6 3.6 0 0 0-1.6 2v7.3h-2V128h1.9v2.8a5.3 5.3 0 0 1 1.6-2 3.2 3.2 0 0 1 2.1-.9h.7zm8.6 9.5l-.5.2-.6.2-.8.2h-1a2.8 2.8 0 0 1-1.8-.6 1.9 1.9 0 0 1-.8-1.8v-8H296V128h1.6v-3.9h2v3.9h2.6v1.6h-2.6v7.3a1.1 1.1 0 0 0 .4 1 1.4 1.4 0 0 0 .9.3l1.1-.2.6-.3zm20.1.6h-2v-6.7a4.9 4.9 0 0 0-.6-2.7 1.9 1.9 0 0 0-1.7-.9 3.1 3.1 0 0 0-2.2.9 4.6 4.6 0 0 0-1.4 2.2v7.2h-2v-6.7a4.9 4.9 0 0 0-.6-2.7 2 2 0 0 0-1.7-.9 3.1 3.1 0 0 0-2.2.9 4.2 4.2 0 0 0-1.4 2.2v7.2h-2V128h1.8v2.6a5.5 5.5 0 0 1 1.9-2.1 5.6 5.6 0 0 1 2.6-.7 3.6 3.6 0 0 1 2.4.8 3.5 3.5 0 0 1 1 2.1 5.1 5.1 0 0 1 4.6-2.9 4.7 4.7 0 0 1 1.7.4 5.2 5.2 0 0 1 1.1 1l.6 1.6a12.7 12.7 0 0 1 .1 2zm8.4.2a6 6 0 0 1-2.4-.5 6 6 0 0 1-3.2-3.3 5.9 5.9 0 0 1-.4-2.3 6.1 6.1 0 0 1 .4-2.4 6.3 6.3 0 0 1 1.3-2 6.1 6.1 0 0 1 4.3-1.8 7 7 0 0 1 2.5.5 6.2 6.2 0 0 1 1.8 1.4 3.9 3.9 0 0 1 1.2 1.9 5.9 5.9 0 0 1 .5 2.3.6.6 0 0 1-.1.4v.3h-9.8a4.5 4.5 0 0 0 1.3 2.9l1.2.8 1.5.3 1.1-.2a3.2 3.2 0 0 0 .9-.3 2.7 2.7 0 0 0 .8-.7 2.4 2.4 0 0 0 .6-.8l1.7.5a8.3 8.3 0 0 1-.8 1.2 3.4 3.4 0 0 1-1.2.9 5.2 5.2 0 0 1-1.5.7zm4.1-6.9a7.5 7.5 0 0 0-.4-1.6 6.2 6.2 0 0 0-.9-1.2 5.7 5.7 0 0 0-1.3-.8 3.3 3.3 0 0 0-1.5-.3l-1.5.3-1.2.8a3.6 3.6 0 0 0-.8 1.2 2.9 2.9 0 0 0-.4 1.6zm14.4 6.7h-2v-6.7a4.9 4.9 0 0 0-.6-2.7 1.8 1.8 0 0 0-1.7-.9 2.7 2.7 0 0 0-1.2.3 2.7 2.7 0 0 0-1.2.6 2.8 2.8 0 0 0-.9 1 7.5 7.5 0 0 0-.7 1.2v7.2h-2V128h1.9v2.6a4.3 4.3 0 0 1 2-2 5.7 5.7 0 0 1 2.9-.8 4.3 4.3 0 0 1 1.7.4 5.2 5.2 0 0 1 1.1 1 7.5 7.5 0 0 1 .5 1.6 6.5 6.5 0 0 1 .2 2zm9.7-.6l-.5.2-.7.2-.8.2h-.9a3.1 3.1 0 0 1-1.9-.6 2.2 2.2 0 0 1-.8-1.8v-8h-1.6V128h1.6v-3.9h2v3.9h2.7v1.6h-2.7v7.3a1.3 1.3 0 0 0 .4 1l.9.3 1.1-.2.7-.3z"/><path fill="#187dec" d="M200 89.5a88.9 88.9 0 0 0-4.1-14.7l-.6-1.7a11.7 11.7 0 0 0-.5-1.1l-1.7-4-1.6-3.3a21.2 21.2 0 0 1-1.1-2.1 4.1 4.1 0 0 1-.7-1.1 82.2 82.2 0 0 0-7.9-11.7 110.5 110.5 0 0 0-9.1-10 86.2 86.2 0 0 0-10-8.2 86.7 86.7 0 0 0-10.3-6.5 39 39 0 0 0-3.5-1.9l-1.7-.8-1.7-.8-3.5-1.5a104.8 104.8 0 0 0-37.6-7.7 112.7 112.7 0 0 0-14.2.8h-.9l-4.8.8-1.7.3-2.9.6-3.4.9-5 1.4.2 1 4.8-1.2 3.7-.8 2.8-.5 1.8-.3 4.7-.6h.9a132.4 132.4 0 0 1 14-.4 101.5 101.5 0 0 1 36.5 8.3l3.4 1.5 1.6.8 1.7.9 3.3 1.8a93.9 93.9 0 0 1 9.9 6.6 77.2 77.2 0 0 1 9.5 8.1A103.1 103.1 0 0 1 179 52a86.4 86.4 0 0 1 7.4 11.4l.6 1.1 1.1 1.9 1.5 3.2 1.3 3.3.3.6a4.9 4.9 0 0 1 .4 1.1l.6 1.7a76.5 76.5 0 0 1 3.7 14 83 83 0 0 1 1.4 14.9 99.3 99.3 0 0 1-19.9 59.5 104.4 104.4 0 0 1-11 12.5 95.1 95.1 0 0 1-13.2 10.5 89.9 89.9 0 0 1-31.4 13.1 91.5 91.5 0 0 1-34.6.1 103.1 103.1 0 0 1-32.6-12.8A104.2 104.2 0 0 1 28 165.2 100.9 100.9 0 0 1 10.7 135l-.9-2.7c-.1-.5-.3-1-.4-1.5s-.7-2.2-1-3.2l-.7-3-.9-4.3c-.1-.4-.1-.9-.2-1.3s-.1-.5-.1-.8a87.8 87.8 0 0 1-1.1-17 95.7 95.7 0 0 1 6.5-32.8A102.3 102.3 0 0 1 51 19.3a111.2 111.2 0 0 1 13.1-7.2 115.2 115.2 0 0 1 13.7-5 118.3 118.3 0 0 1 13.9-2.7 106 106 0 0 1 13.5-.8 105.7 105.7 0 0 1 13.1 1.1l4.2.7 2 .4 1.8.4 1.2.3h.7l2.3.6a102.1 102.1 0 0 1 21.5 8.5 104.4 104.4 0 0 1 29.8 22.9l2.5 2.8.8 1 1.5 1.8 1.3 1.7 2.6 3.6 1.7 2.4.9 1.5 1.9 2.9c.2.4.5.8.7 1.3l.4.6a5.4 5.4 0 0 0 .7 1.3c.4.7.7 1.4 1.1 2l2.2 4.4.9-.4-2.1-4.5-1.1-2.1-.6-1.3a1.6 1.6 0 0 1-.4-.7c-.2-.4-.5-.8-.7-1.3l-1.7-2.9a14 14 0 0 0-1-1.6l-1.6-2.5a45.6 45.6 0 0 0-2.7-3.9A9.1 9.1 0 0 1 188 43l-1.5-1.8-.8-1-1.2-1.5-1.3-1.5a112.4 112.4 0 0 0-29.9-24.1 113.3 113.3 0 0 0-21.9-9l-2.4-.7-1.5-.3-2.3-.6-2-.4-4.4-.8A108.5 108.5 0 0 0 105.3 0a114 114 0 0 0-14.1.6 108.8 108.8 0 0 0-14.4 2.7 95.4 95.4 0 0 0-14.3 5 114.7 114.7 0 0 0-13.9 7.3A106.2 106.2 0 0 0 0 101.1a108.1 108.1 0 0 0 1.1 18v.8l.3 1.5.8 4.1a.4.4 0 0 0 .1.3l.8 3.1c.2 1.1.6 2.4.9 3.5a7.5 7.5 0 0 1 .5 1.6c.3.9.6 1.9 1 2.8a102.9 102.9 0 0 0 18.1 31.9 112.9 112.9 0 0 0 27.9 24.2A106.1 106.1 0 0 0 86 206.3a103 103 0 0 0 18.3 1.7 92.6 92.6 0 0 0 18.4-1.8l1.2-.3 4.1-1 1.5-.4 4.2-1.3 2.3-.8 1.4-.6 2.8-1.1a85.8 85.8 0 0 0 15.9-8.6 104 104 0 0 0 13.9-11.2 99.9 99.9 0 0 0 11.5-13.2 102.3 102.3 0 0 0 20.1-62.5 90.4 90.4 0 0 0-1.6-15.7z"/></svg>
